<svg id="logo" width="580" height="56" viewBox="0 0 580 56" fill="none" xmlns="http://www.w3.org/2000/svg">
	<path d="M27.104 55.296C21.68 55.296 16.928 54.12 12.848 51.768C8.81598 49.416 5.67198 46.176 3.41598 42.048C1.15998 37.92 0.0319824 33.24 0.0319824 28.008V26.424C0.0319824 23.064 0.607982 19.824 1.75998 16.704C2.95998 13.536 4.66398 10.704 6.87198 8.208C9.12798 5.664 11.864 3.672 15.08 2.232C18.296 0.743999 21.92 0 25.952 0C30.32 0 34.208 0.839999 37.616 2.52C41.024 4.152 43.76 6.456 45.824 9.432C47.888 12.36 49.088 15.768 49.424 19.656H42.224C41.888 16.728 40.928 14.304 39.344 12.384C37.76 10.416 35.792 8.952 33.44 7.992C31.136 6.984 28.64 6.48 25.952 6.48C22.304 6.48 19.064 7.344 16.232 9.072C13.4 10.8 11.192 13.224 9.60798 16.344C8.02398 19.416 7.23198 23.064 7.23198 27.288C7.23198 32.088 8.07198 36.096 9.75198 39.312C11.48 42.528 13.832 44.952 16.808 46.584C19.832 48.168 23.264 48.96 27.104 48.96C30.272 48.96 33.152 48.456 35.744 47.448C38.336 46.44 40.52 45.072 42.296 43.344V34.416H25.232V28.512H53.384V34.416H48.92V45.504C46.568 48.576 43.544 50.976 39.848 52.704C36.152 54.432 31.904 55.296 27.104 55.296Z" stroke="white" stroke-width="2"/>
	<path d="M63.4679 54V1.44H93.8519V7.776H70.5239V24.12H92.3399V30.456H70.5239V47.664H94.5719V54H63.4679Z" stroke="white" stroke-width="2"/>
	<path d="M116.864 54V7.776H100.88V1.44H139.904V7.776H123.92V54H116.864Z" stroke="white" stroke-width="2"/>
	<path d="M175.997 54V7.776H160.013V1.44H199.037V7.776H183.053V54H175.997Z" stroke="white" stroke-width="2"/>
	<path d="M208.523 54V1.44H215.579V24.696H244.091V1.44H251.147V54H244.091V31.032H215.579V54H208.523Z" stroke="white" stroke-width="2"/>
	<path d="M266.39 54V1.44H296.774V7.776H273.446V24.12H295.262V30.456H273.446V47.664H297.494V54H266.39Z" stroke="white" stroke-width="2"/>
	<path d="M325.944 54V1.44H355.32V7.776H333V24.264L354.096 24.192V30.528L333 30.6V54H325.944Z" stroke="white" stroke-width="2"/>
	<path d="M366.234 54V1.44H373.29V47.664H395.898V54H366.234Z" stroke="white" stroke-width="2"/>
	<path d="M405.542 54V1.44H412.598V54H405.542Z" stroke="white" stroke-width="2"/>
	<path d="M451.51 55.296C446.086 55.296 441.334 54.12 437.254 51.768C433.222 49.416 430.078 46.176 427.822 42.048C425.566 37.92 424.438 33.24 424.438 28.008V26.424C424.438 23.064 425.014 19.824 426.166 16.704C427.366 13.536 429.07 10.704 431.278 8.208C433.534 5.664 436.27 3.672 439.486 2.232C442.702 0.743999 446.326 0 450.358 0C454.726 0 458.614 0.839999 462.022 2.52C465.43 4.152 468.166 6.456 470.23 9.432C472.294 12.36 473.494 15.768 473.83 19.656H466.63C466.294 16.728 465.334 14.304 463.75 12.384C462.166 10.416 460.198 8.952 457.846 7.992C455.542 6.984 453.046 6.48 450.358 6.48C446.71 6.48 443.47 7.344 440.638 9.072C437.806 10.8 435.598 13.224 434.014 16.344C432.43 19.416 431.638 23.064 431.638 27.288C431.638 32.088 432.478 36.096 434.158 39.312C435.886 42.528 438.238 44.952 441.214 46.584C444.238 48.168 447.67 48.96 451.51 48.96C454.678 48.96 457.558 48.456 460.15 47.448C462.742 46.44 464.926 45.072 466.702 43.344V34.416H449.638V28.512H477.79V34.416H473.326V45.504C470.974 48.576 467.95 50.976 464.254 52.704C460.558 54.432 456.31 55.296 451.51 55.296Z" stroke="white" stroke-width="2"/>
	<path d="M487.874 54V1.44H494.93V24.696H523.442V1.44H530.498V54H523.442V31.032H494.93V54H487.874Z" stroke="white" stroke-width="2"/>
	<path d="M555.965 54V7.776H539.981V1.44H579.005V7.776H563.021V54H555.965Z" stroke="white" stroke-width="2"/>
</svg>